<svg width="191" height="38" viewBox="0 0 191 38" fill="none" xmlns="http://www.w3.org/2000/svg">
    <path d="M35.4691 18.506C38.5284 18.506 40.364 16.331 40.364 13.7435C40.364 11.1747 38.5284 8.99971 35.4691 8.99971C32.4289 8.99971 30.5933 11.1747 30.5933 13.7435C30.5933 16.331 32.4289 18.506 35.4691 18.506ZM35.4691 16.3872C33.9585 16.3872 33.1172 15.1685 33.1172 13.7435C33.1172 12.3372 33.9585 11.1185 35.4691 11.1185C36.9796 11.1185 37.8401 12.3372 37.8401 13.7435C37.8401 15.1685 36.9796 16.3872 35.4691 16.3872Z" fill="#6344DF"/>
    <path d="M42.1656 18.281H44.5939V12.2997C44.9955 11.7185 46.0662 11.2872 46.8693 11.2872C47.137 11.2872 47.3665 11.306 47.5385 11.3435V9.01846C46.3913 9.01846 45.244 9.65596 44.5939 10.4622V9.22471H42.1656V18.281Z" fill="#6344DF"/>
    <path d="M50.2604 7.89346C51.0635 7.89346 51.7136 7.25596 51.7136 6.46846C51.7136 5.68096 51.0635 5.04346 50.2604 5.04346C49.4765 5.04346 48.8072 5.68096 48.8072 6.46846C48.8072 7.25596 49.4765 7.89346 50.2604 7.89346ZM49.0558 18.281H51.4842V9.22471H49.0558V18.281Z" fill="#6344DF"/>
    <path d="M53.7008 20.606C54.8481 21.5997 56.091 21.956 57.678 21.956C59.9534 21.956 62.6685 21.1122 62.6685 17.6622V9.22471H60.2211V10.3872C59.4753 9.46846 58.4811 8.99971 57.3721 8.99971C55.0393 8.99971 53.2993 10.6497 53.2993 13.6122C53.2993 16.631 55.0584 18.2247 57.3721 18.2247C58.5002 18.2247 59.4945 17.6997 60.2211 16.7997V17.7185C60.2211 19.4997 58.8444 20.006 57.678 20.006C56.5116 20.006 55.5364 19.6872 54.7907 18.881L53.7008 20.606ZM60.2211 15.0747C59.8195 15.656 58.94 16.106 58.1369 16.106C56.7602 16.106 55.8041 15.1685 55.8041 13.6122C55.8041 12.056 56.7602 11.1185 58.1369 11.1185C58.94 11.1185 59.8195 11.5497 60.2211 12.1497V15.0747Z" fill="#6344DF"/>
    <path d="M66.2816 7.89346C67.0847 7.89346 67.7348 7.25596 67.7348 6.46846C67.7348 5.68096 67.0847 5.04346 66.2816 5.04346C65.4977 5.04346 64.8284 5.68096 64.8284 6.46846C64.8284 7.25596 65.4977 7.89346 66.2816 7.89346ZM65.077 18.281H67.5054V9.22471H65.077V18.281Z" fill="#6344DF"/>
    <path d="M76.1467 18.281H78.575V11.8872C78.575 10.1247 77.5999 8.99971 75.573 8.99971C74.0625 8.99971 72.9344 9.71221 72.3416 10.406V9.22471H69.9133V18.281H72.3416V12.1872C72.7431 11.6435 73.4889 11.1185 74.4449 11.1185C75.4774 11.1185 76.1467 11.5497 76.1467 12.806V18.281Z" fill="#6344DF"/>
    <path d="M84.0838 18.506C85.0972 18.506 85.7473 18.2435 86.1106 17.9247L85.5943 16.1247C85.4605 16.256 85.1163 16.3872 84.753 16.3872C84.2176 16.3872 83.9117 15.956 83.9117 15.3935V11.306H85.7855V9.22471H83.9117V6.74971H81.4642V9.22471H79.9345V11.306H81.4642V16.031C81.4642 17.6435 82.382 18.506 84.0838 18.506Z" fill="#6344DF"/>
    <path d="M87.447 18.281H89.8753V12.2997C90.2768 11.7185 91.3476 11.2872 92.1507 11.2872C92.4184 11.2872 92.6478 11.306 92.8199 11.3435V9.01846C91.6727 9.01846 90.5254 9.65596 89.8753 10.4622V9.22471H87.447V18.281Z" fill="#6344DF"/>
    <path d="M100.685 18.281H103.133V9.22471H100.685V10.3872C99.9587 9.46846 98.9262 8.99971 97.8363 8.99971C95.4844 8.99971 93.7444 10.7997 93.7444 13.7622C93.7444 16.781 95.5036 18.506 97.8363 18.506C98.9453 18.506 99.9587 18.0185 100.685 17.1372V18.281ZM100.685 15.356C100.265 15.956 99.4042 16.3872 98.582 16.3872C97.2053 16.3872 96.2493 15.3185 96.2493 13.7622C96.2493 12.1872 97.2053 11.1372 98.582 11.1372C99.4042 11.1372 100.265 11.5685 100.685 12.1685V15.356Z" fill="#6344DF"/>
    <path d="M106.745 7.89346C107.549 7.89346 108.199 7.25596 108.199 6.46846C108.199 5.68096 107.549 5.04346 106.745 5.04346C105.961 5.04346 105.292 5.68096 105.292 6.46846C105.292 7.25596 105.961 7.89346 106.745 7.89346ZM105.541 18.281H107.969V9.22471H105.541V18.281Z" fill="#6344DF"/>
    <path d="M112.978 18.506C113.972 18.506 114.622 18.2435 114.985 17.9247L114.469 16.1247C114.354 16.256 114.01 16.3872 113.647 16.3872C113.111 16.3872 112.805 15.956 112.805 15.3935V5.77471H110.377V16.031C110.377 17.6435 111.276 18.506 112.978 18.506Z" fill="#6344DF"/>
    <path fill-rule="evenodd" clip-rule="evenodd" d="M12.7472 7.21711C9.20893 7.21711 6.34009 10.0299 6.34009 13.5C6.34009 16.9696 9.20893 19.7824 12.7472 19.7824C14.7139 19.7824 16.4733 18.9131 17.6486 17.5453L22.4992 21.5488C20.1609 24.2703 16.6602 25.9999 12.7472 25.9999C5.7069 25.9999 0 20.4033 0 13.5C0 6.59621 5.7069 1 12.7472 1V7.21711ZM23.7616 19.7944L18.2829 16.6636C18.4699 16.3497 18.63 16.0186 18.7599 15.6732L24.7107 17.8239C24.4522 18.5113 24.1335 19.17 23.7616 19.7944ZM19.154 13.4998H25.4945C25.4945 12.7594 25.4284 12.0341 25.3025 11.3289L19.0575 12.4087C19.1208 12.7632 19.154 13.1277 19.154 13.4998ZM22.5459 5.50494L17.6722 9.48155C17.4335 9.20054 17.1702 8.94046 16.8857 8.70409L20.981 3.95818C21.5471 4.42842 22.071 4.94586 22.5459 5.50494Z" fill="#6344DF"/>
    <path d="M133.925 13.9145H128.463V18.7912H126V7.17432H128.463V11.7375H133.925V7.17432H136.405V18.7912H133.925V13.9145Z" fill="#131415"/>
    <path d="M142.517 19.0002C141.627 19.0002 140.847 18.8028 140.176 18.408C139.505 18.0132 138.991 17.4791 138.633 16.8057C138.274 16.1322 138.095 15.3891 138.095 14.5763C138.095 13.7752 138.274 13.0379 138.633 12.3644C138.991 11.691 139.505 11.1569 140.176 10.7621C140.847 10.3673 141.627 10.17 142.517 10.17C143.419 10.17 144.205 10.3673 144.876 10.7621C145.546 11.1569 146.061 11.691 146.419 12.3644C146.777 13.0379 146.957 13.7752 146.957 14.5763C146.957 15.3891 146.777 16.1322 146.419 16.8057C146.061 17.4791 145.546 18.0132 144.876 18.408C144.205 18.8028 143.419 19.0002 142.517 19.0002ZM142.517 17.0321C143.176 17.0321 143.696 16.7999 144.078 16.3354C144.471 15.8594 144.668 15.273 144.668 14.5763C144.668 13.8913 144.471 13.3166 144.078 12.8521C143.696 12.3761 143.176 12.138 142.517 12.138C141.858 12.138 141.338 12.3761 140.956 12.8521C140.575 13.3166 140.384 13.8913 140.384 14.5763C140.384 15.273 140.575 15.8594 140.956 16.3354C141.338 16.7999 141.858 17.0321 142.517 17.0321Z" fill="#131415"/>
    <path d="M154.244 17.7287C153.92 18.0887 153.504 18.3906 152.995 18.6344C152.498 18.8782 151.932 19.0002 151.296 19.0002C150.394 19.0002 149.718 18.7679 149.267 18.3035C148.816 17.839 148.591 17.1888 148.591 16.3528V10.379H150.793V15.482C150.793 16.0393 150.926 16.4399 151.192 16.6837C151.458 16.916 151.839 17.0321 152.336 17.0321C152.73 17.0321 153.094 16.9392 153.429 16.7534C153.764 16.5676 154.036 16.3412 154.244 16.0742V10.379H156.446V18.7912H154.244V17.7287Z" fill="#131415"/>
    <path d="M158.859 16.1438C159.182 16.4457 159.622 16.7128 160.177 16.945C160.732 17.1772 161.258 17.2933 161.755 17.2933C162.217 17.2933 162.564 17.2179 162.795 17.0669C163.038 16.916 163.16 16.707 163.16 16.4399C163.16 16.1729 163.021 15.9697 162.743 15.8303C162.466 15.691 162.044 15.5633 161.477 15.4472C160.807 15.3195 160.252 15.1801 159.813 15.0292C159.373 14.8782 158.992 14.6286 158.668 14.2803C158.344 13.9203 158.182 13.4327 158.182 12.8173C158.182 12.3412 158.315 11.9 158.581 11.4936C158.859 11.0872 159.258 10.7679 159.778 10.5357C160.298 10.2919 160.911 10.17 161.616 10.17C162.911 10.17 164.032 10.5531 164.98 11.3195L164.113 12.8347C163.847 12.556 163.489 12.3238 163.038 12.138C162.599 11.9523 162.131 11.8594 161.633 11.8594C161.229 11.8594 160.905 11.929 160.662 12.0684C160.431 12.2077 160.315 12.3993 160.315 12.6431C160.315 12.8869 160.443 13.0727 160.697 13.2004C160.963 13.3166 161.368 13.4327 161.911 13.5488C162.581 13.6765 163.142 13.8216 163.593 13.9842C164.044 14.1467 164.437 14.4138 164.772 14.7853C165.108 15.1569 165.275 15.662 165.275 16.3006C165.275 17.1017 164.952 17.752 164.304 18.2512C163.668 18.7505 162.784 19.0002 161.651 19.0002C160.922 19.0002 160.223 18.884 159.552 18.6518C158.893 18.4196 158.344 18.1003 157.905 17.6939L158.859 16.1438Z" fill="#131415"/>
    <path d="M169.707 19.0002C168.933 19.0002 168.343 18.8028 167.938 18.408C167.534 18.0132 167.331 17.4443 167.331 16.7012V12.3122H165.944V10.379H167.331V8.07998H169.551V10.379H171.251V12.3122H169.551V16.109C169.551 16.3761 169.62 16.5967 169.759 16.7708C169.898 16.945 170.083 17.0321 170.314 17.0321C170.476 17.0321 170.626 17.0089 170.765 16.9624C170.904 16.916 171.008 16.8579 171.077 16.7882L171.545 18.4602C171.141 18.8202 170.528 19.0002 169.707 19.0002Z" fill="#131415"/>
    <path d="M176.642 19.0002C175.752 19.0002 174.971 18.8028 174.301 18.408C173.63 18.0132 173.116 17.4791 172.757 16.8057C172.399 16.1322 172.22 15.3891 172.22 14.5763C172.22 13.7752 172.399 13.0379 172.757 12.3644C173.116 11.691 173.63 11.1569 174.301 10.7621C174.971 10.3673 175.752 10.17 176.642 10.17C177.544 10.17 178.33 10.3673 179 10.7621C179.671 11.1569 180.186 11.691 180.544 12.3644C180.902 13.0379 181.082 13.7752 181.082 14.5763C181.082 15.3891 180.902 16.1322 180.544 16.8057C180.186 17.4791 179.671 18.0132 179 18.408C178.33 18.8028 177.544 19.0002 176.642 19.0002ZM176.642 17.0321C177.301 17.0321 177.821 16.7999 178.203 16.3354C178.596 15.8594 178.792 15.273 178.792 14.5763C178.792 13.8913 178.596 13.3166 178.203 12.8521C177.821 12.3761 177.301 12.138 176.642 12.138C175.983 12.138 175.463 12.3761 175.081 12.8521C174.7 13.3166 174.509 13.8913 174.509 14.5763C174.509 15.273 174.7 15.8594 175.081 16.3354C175.463 16.7999 175.983 17.0321 176.642 17.0321Z" fill="#131415"/>
    <path d="M188.369 13.7055C188.369 13.1482 188.236 12.7476 187.97 12.5038C187.704 12.2599 187.323 12.138 186.825 12.138C186.421 12.138 186.051 12.2367 185.716 12.4341C185.392 12.6199 185.126 12.8521 184.918 13.1308V18.7912H182.715V10.379H184.918V11.4762C185.218 11.1163 185.623 10.8086 186.132 10.5531C186.64 10.2977 187.213 10.17 187.849 10.17C188.75 10.17 189.427 10.408 189.878 10.884C190.34 11.3601 190.571 12.0161 190.571 12.8521V18.7912H188.369V13.7055Z" fill="#131415"/>
    <path d="M53.028 36.9999H52.027L48.001 30.8949V36.9999H47V29.3219H48.001L52.027 35.4159V29.3219H53.028V36.9999Z" fill="black"/>
    <path d="M57.3634 37.0989C56.7987 37.0989 56.2854 36.9705 55.8234 36.7139C55.3687 36.4572 55.0094 36.0942 54.7454 35.6249C54.4887 35.1482 54.3604 34.5982 54.3604 33.9749C54.3604 33.3589 54.4924 32.8162 54.7564 32.3469C55.0277 31.8702 55.3944 31.5072 55.8564 31.2579C56.3184 31.0012 56.8354 30.8729 57.4074 30.8729C57.9794 30.8729 58.4964 31.0012 58.9584 31.2579C59.4204 31.5072 59.7834 31.8665 60.0474 32.3359C60.3187 32.8052 60.4544 33.3515 60.4544 33.9749C60.4544 34.5982 60.315 35.1482 60.0364 35.6249C59.765 36.0942 59.3947 36.4572 58.9254 36.7139C58.456 36.9705 57.9354 37.0989 57.3634 37.0989ZM57.3634 36.2189C57.7227 36.2189 58.06 36.1345 58.3754 35.9659C58.6907 35.7972 58.9437 35.5442 59.1344 35.2069C59.3324 34.8695 59.4314 34.4589 59.4314 33.9749C59.4314 33.4909 59.336 33.0802 59.1454 32.7429C58.9547 32.4055 58.7054 32.1562 58.3974 31.9949C58.0894 31.8262 57.7557 31.7419 57.3964 31.7419C57.0297 31.7419 56.6924 31.8262 56.3844 31.9949C56.0837 32.1562 55.8417 32.4055 55.6584 32.7429C55.475 33.0802 55.3834 33.4909 55.3834 33.9749C55.3834 34.4662 55.4714 34.8805 55.6474 35.2179C55.8307 35.5552 56.0727 35.8082 56.3734 35.9769C56.674 36.1382 57.004 36.2189 57.3634 36.2189Z" fill="black"/>
    <path d="M61.3965 33.9639C61.3965 33.3479 61.5212 32.8089 61.7705 32.3469C62.0198 31.8775 62.3608 31.5145 62.7935 31.2579C63.2335 31.0012 63.7248 30.8729 64.2675 30.8729C64.7368 30.8729 65.1732 30.9829 65.5765 31.2029C65.9798 31.4155 66.2878 31.6979 66.5005 32.0499V28.8599H67.5125V36.9999H66.5005V35.8669C66.3025 36.2262 66.0092 36.5232 65.6205 36.7579C65.2318 36.9852 64.7772 37.0989 64.2565 37.0989C63.7212 37.0989 63.2335 36.9669 62.7935 36.7029C62.3608 36.4389 62.0198 36.0685 61.7705 35.5919C61.5212 35.1152 61.3965 34.5725 61.3965 33.9639ZM66.5005 33.9749C66.5005 33.5202 66.4088 33.1242 66.2255 32.7869C66.0422 32.4495 65.7928 32.1929 65.4775 32.0169C65.1695 31.8335 64.8285 31.7419 64.4545 31.7419C64.0805 31.7419 63.7395 31.8299 63.4315 32.0059C63.1235 32.1819 62.8778 32.4385 62.6945 32.7759C62.5112 33.1132 62.4195 33.5092 62.4195 33.9639C62.4195 34.4259 62.5112 34.8292 62.6945 35.1739C62.8778 35.5112 63.1235 35.7715 63.4315 35.9549C63.7395 36.1309 64.0805 36.2189 64.4545 36.2189C64.8285 36.2189 65.1695 36.1309 65.4775 35.9549C65.7928 35.7715 66.0422 35.5112 66.2255 35.1739C66.4088 34.8292 66.5005 34.4295 66.5005 33.9749Z" fill="black"/>
    <path d="M74.7041 33.7549C74.7041 33.9455 74.6931 34.1472 74.6711 34.3599H69.8531C69.8898 34.9539 70.0914 35.4195 70.4581 35.7569C70.8321 36.0869 71.2831 36.2519 71.8111 36.2519C72.2438 36.2519 72.6031 36.1529 72.8891 35.9549C73.1824 35.7495 73.3878 35.4782 73.5051 35.1409H74.5831C74.4218 35.7202 74.0991 36.1932 73.6151 36.5599C73.1311 36.9192 72.5298 37.0989 71.8111 37.0989C71.2391 37.0989 70.7258 36.9705 70.2711 36.7139C69.8238 36.4572 69.4718 36.0942 69.2151 35.6249C68.9584 35.1482 68.8301 34.5982 68.8301 33.9749C68.8301 33.3515 68.9548 32.8052 69.2041 32.3359C69.4534 31.8665 69.8018 31.5072 70.2491 31.2579C70.7038 31.0012 71.2244 30.8729 71.8111 30.8729C72.3831 30.8729 72.8891 30.9975 73.3291 31.2469C73.7691 31.4962 74.1064 31.8409 74.3411 32.2809C74.5831 32.7135 74.7041 33.2049 74.7041 33.7549ZM73.6701 33.5459C73.6701 33.1645 73.5858 32.8382 73.4171 32.5669C73.2484 32.2882 73.0174 32.0792 72.7241 31.9399C72.4381 31.7932 72.1191 31.7199 71.7671 31.7199C71.2611 31.7199 70.8284 31.8812 70.4691 32.2039C70.1171 32.5265 69.9154 32.9739 69.8641 33.5459H73.6701Z" fill="black"/>
    <path d="M81.202 36.0759L83.072 30.9719H84.139L81.774 36.9999H80.608L78.243 30.9719H79.321L81.202 36.0759Z" fill="black"/>
    <path d="M89.392 30.9389C89.2307 30.1249 88.7284 29.7179 87.885 29.7179C87.2324 29.7179 86.7447 29.9709 86.422 30.4769C86.0994 30.9755 85.9417 31.8005 85.949 32.9519C86.1177 32.5705 86.3964 32.2735 86.785 32.0609C87.181 31.8409 87.621 31.7309 88.105 31.7309C88.8604 31.7309 89.4617 31.9655 89.909 32.4349C90.3637 32.9042 90.591 33.5532 90.591 34.3819C90.591 34.8805 90.492 35.3279 90.294 35.7239C90.1034 36.1199 89.81 36.4352 89.414 36.6699C89.0254 36.9045 88.5524 37.0219 87.995 37.0219C87.2397 37.0219 86.6494 36.8532 86.224 36.5159C85.7987 36.1785 85.5017 35.7129 85.333 35.1189C85.1644 34.5249 85.08 33.7915 85.08 32.9189C85.08 30.2275 86.0187 28.8819 87.896 28.8819C88.6147 28.8819 89.1794 29.0762 89.59 29.4649C90.0007 29.8535 90.2427 30.3449 90.316 30.9389H89.392ZM87.896 32.5779C87.5807 32.5779 87.2837 32.6439 87.005 32.7759C86.7264 32.9005 86.499 33.0949 86.323 33.3589C86.1544 33.6155 86.07 33.9309 86.07 34.3049C86.07 34.8622 86.2314 35.3169 86.554 35.6689C86.8767 36.0135 87.3387 36.1859 87.94 36.1859C88.4534 36.1859 88.8604 36.0282 89.161 35.7129C89.469 35.3902 89.623 34.9575 89.623 34.4149C89.623 33.8429 89.4764 33.3955 89.183 33.0729C88.8897 32.7429 88.4607 32.5779 87.896 32.5779Z" fill="black"/>
    <path d="M94.6651 33.9749C94.6651 33.3515 94.7897 32.8089 95.0391 32.3469C95.2884 31.8775 95.6331 31.5145 96.0731 31.2579C96.5204 31.0012 97.0301 30.8729 97.6021 30.8729C98.3427 30.8729 98.9514 31.0525 99.4281 31.4119C99.9121 31.7712 100.231 32.2699 100.385 32.9079H99.3071C99.2044 32.5412 99.0027 32.2515 98.7021 32.0389C98.4087 31.8262 98.0421 31.7199 97.6021 31.7199C97.0301 31.7199 96.5681 31.9179 96.2161 32.3139C95.8641 32.7025 95.6881 33.2562 95.6881 33.9749C95.6881 34.7009 95.8641 35.2619 96.2161 35.6579C96.5681 36.0539 97.0301 36.2519 97.6021 36.2519C98.0421 36.2519 98.4087 36.1492 98.7021 35.9439C98.9954 35.7385 99.1971 35.4452 99.3071 35.0639H100.385C100.224 35.6799 99.9011 36.1749 99.4171 36.5489C98.9331 36.9155 98.3281 37.0989 97.6021 37.0989C97.0301 37.0989 96.5204 36.9705 96.0731 36.7139C95.6331 36.4572 95.2884 36.0942 95.0391 35.6249C94.7897 35.1555 94.6651 34.6055 94.6651 33.9749Z" fill="black"/>
    <path d="M104.35 37.0989C103.785 37.0989 103.272 36.9705 102.81 36.7139C102.355 36.4572 101.996 36.0942 101.732 35.6249C101.475 35.1482 101.347 34.5982 101.347 33.9749C101.347 33.3589 101.479 32.8162 101.743 32.3469C102.014 31.8702 102.381 31.5072 102.843 31.2579C103.305 31.0012 103.822 30.8729 104.394 30.8729C104.966 30.8729 105.483 31.0012 105.945 31.2579C106.407 31.5072 106.77 31.8665 107.034 32.3359C107.305 32.8052 107.441 33.3515 107.441 33.9749C107.441 34.5982 107.301 35.1482 107.023 35.6249C106.751 36.0942 106.381 36.4572 105.912 36.7139C105.442 36.9705 104.922 37.0989 104.35 37.0989ZM104.35 36.2189C104.709 36.2189 105.046 36.1345 105.362 35.9659C105.677 35.7972 105.93 35.5442 106.121 35.2069C106.319 34.8695 106.418 34.4589 106.418 33.9749C106.418 33.4909 106.322 33.0802 106.132 32.7429C105.941 32.4055 105.692 32.1562 105.384 31.9949C105.076 31.8262 104.742 31.7419 104.383 31.7419C104.016 31.7419 103.679 31.8262 103.371 31.9949C103.07 32.1562 102.828 32.4055 102.645 32.7429C102.461 33.0802 102.37 33.4909 102.37 33.9749C102.37 34.4662 102.458 34.8805 102.634 35.2179C102.817 35.5552 103.059 35.8082 103.36 35.9769C103.66 36.1382 103.99 36.2189 104.35 36.2189Z" fill="black"/>
    <path d="M116.006 30.8619C116.475 30.8619 116.893 30.9609 117.26 31.1589C117.627 31.3495 117.916 31.6392 118.129 32.0279C118.342 32.4165 118.448 32.8895 118.448 33.4469V36.9999H117.458V33.5899C117.458 32.9885 117.308 32.5302 117.007 32.2149C116.714 31.8922 116.314 31.7309 115.808 31.7309C115.287 31.7309 114.873 31.8995 114.565 32.2369C114.257 32.5669 114.103 33.0472 114.103 33.6779V36.9999H113.113V33.5899C113.113 32.9885 112.963 32.5302 112.662 32.2149C112.368 31.8922 111.969 31.7309 111.463 31.7309C110.942 31.7309 110.528 31.8995 110.22 32.2369C109.912 32.5669 109.758 33.0472 109.758 33.6779V36.9999H108.757V30.9719H109.758V31.8409C109.956 31.5255 110.22 31.2835 110.55 31.1149C110.887 30.9462 111.257 30.8619 111.661 30.8619C112.167 30.8619 112.614 30.9755 113.003 31.2029C113.392 31.4302 113.681 31.7639 113.872 32.2039C114.04 31.7785 114.319 31.4485 114.708 31.2139C115.097 30.9792 115.529 30.8619 116.006 30.8619Z" fill="black"/>
    <path d="M127.339 30.8619C127.808 30.8619 128.226 30.9609 128.593 31.1589C128.96 31.3495 129.249 31.6392 129.462 32.0279C129.675 32.4165 129.781 32.8895 129.781 33.4469V36.9999H128.791V33.5899C128.791 32.9885 128.641 32.5302 128.34 32.2149C128.047 31.8922 127.647 31.7309 127.141 31.7309C126.62 31.7309 126.206 31.8995 125.898 32.2369C125.59 32.5669 125.436 33.0472 125.436 33.6779V36.9999H124.446V33.5899C124.446 32.9885 124.296 32.5302 123.995 32.2149C123.702 31.8922 123.302 31.7309 122.796 31.7309C122.275 31.7309 121.861 31.8995 121.553 32.2369C121.245 32.5669 121.091 33.0472 121.091 33.6779V36.9999H120.09V30.9719H121.091V31.8409C121.289 31.5255 121.553 31.2835 121.883 31.1149C122.22 30.9462 122.591 30.8619 122.994 30.8619C123.5 30.8619 123.947 30.9755 124.336 31.2029C124.725 31.4302 125.014 31.7639 125.205 32.2039C125.374 31.7785 125.652 31.4485 126.041 31.2139C126.43 30.9792 126.862 30.8619 127.339 30.8619Z" fill="black"/>
    <path d="M131.049 33.9639C131.049 33.3479 131.174 32.8089 131.423 32.3469C131.672 31.8775 132.013 31.5145 132.446 31.2579C132.886 31.0012 133.374 30.8729 133.909 30.8729C134.437 30.8729 134.895 30.9865 135.284 31.2139C135.673 31.4412 135.962 31.7272 136.153 32.0719V30.9719H137.165V36.9999H136.153V35.8779C135.955 36.2299 135.658 36.5232 135.262 36.7579C134.873 36.9852 134.419 37.0989 133.898 37.0989C133.363 37.0989 132.879 36.9669 132.446 36.7029C132.013 36.4389 131.672 36.0685 131.423 35.5919C131.174 35.1152 131.049 34.5725 131.049 33.9639ZM136.153 33.9749C136.153 33.5202 136.061 33.1242 135.878 32.7869C135.695 32.4495 135.445 32.1929 135.13 32.0169C134.822 31.8335 134.481 31.7419 134.107 31.7419C133.733 31.7419 133.392 31.8299 133.084 32.0059C132.776 32.1819 132.53 32.4385 132.347 32.7759C132.164 33.1132 132.072 33.5092 132.072 33.9639C132.072 34.4259 132.164 34.8292 132.347 35.1739C132.53 35.5112 132.776 35.7715 133.084 35.9549C133.392 36.1309 133.733 36.2189 134.107 36.2189C134.481 36.2189 134.822 36.1309 135.13 35.9549C135.445 35.7715 135.695 35.5112 135.878 35.1739C136.061 34.8292 136.153 34.4295 136.153 33.9749Z" fill="black"/>
    <path d="M141.793 30.8619C142.527 30.8619 143.121 31.0855 143.575 31.5329C144.03 31.9729 144.257 32.6109 144.257 33.4469V36.9999H143.267V33.5899C143.267 32.9885 143.117 32.5302 142.816 32.2149C142.516 31.8922 142.105 31.7309 141.584 31.7309C141.056 31.7309 140.635 31.8959 140.319 32.2259C140.011 32.5559 139.857 33.0362 139.857 33.6669V36.9999H138.856V30.9719H139.857V31.8299C140.055 31.5219 140.323 31.2835 140.66 31.1149C141.005 30.9462 141.383 30.8619 141.793 30.8619Z" fill="black"/>
    <path d="M145.519 33.9639C145.519 33.3479 145.643 32.8089 145.893 32.3469C146.142 31.8775 146.483 31.5145 146.916 31.2579C147.356 31.0012 147.847 30.8729 148.39 30.8729C148.859 30.8729 149.295 30.9829 149.699 31.2029C150.102 31.4155 150.41 31.6979 150.623 32.0499V28.8599H151.635V36.9999H150.623V35.8669C150.425 36.2262 150.131 36.5232 149.743 36.7579C149.354 36.9852 148.899 37.0989 148.379 37.0989C147.843 37.0989 147.356 36.9669 146.916 36.7029C146.483 36.4389 146.142 36.0685 145.893 35.5919C145.643 35.1152 145.519 34.5725 145.519 33.9639ZM150.623 33.9749C150.623 33.5202 150.531 33.1242 150.348 32.7869C150.164 32.4495 149.915 32.1929 149.6 32.0169C149.292 31.8335 148.951 31.7419 148.577 31.7419C148.203 31.7419 147.862 31.8299 147.554 32.0059C147.246 32.1819 147 32.4385 146.817 32.7759C146.633 33.1132 146.542 33.5092 146.542 33.9639C146.542 34.4259 146.633 34.8292 146.817 35.1739C147 35.5112 147.246 35.7715 147.554 35.9549C147.862 36.1309 148.203 36.2189 148.577 36.2189C148.951 36.2189 149.292 36.1309 149.6 35.9549C149.915 35.7715 150.164 35.5112 150.348 35.1739C150.531 34.8292 150.623 34.4295 150.623 33.9749Z" fill="black"/>
    <path d="M155.885 33.9749C155.885 33.3515 156.009 32.8089 156.259 32.3469C156.508 31.8775 156.853 31.5145 157.293 31.2579C157.74 31.0012 158.25 30.8729 158.822 30.8729C159.562 30.8729 160.171 31.0525 160.648 31.4119C161.132 31.7712 161.451 32.2699 161.605 32.9079H160.527C160.424 32.5412 160.222 32.2515 159.922 32.0389C159.628 31.8262 159.262 31.7199 158.822 31.7199C158.25 31.7199 157.788 31.9179 157.436 32.3139C157.084 32.7025 156.908 33.2562 156.908 33.9749C156.908 34.7009 157.084 35.2619 157.436 35.6579C157.788 36.0539 158.25 36.2519 158.822 36.2519C159.262 36.2519 159.628 36.1492 159.922 35.9439C160.215 35.7385 160.417 35.4452 160.527 35.0639H161.605C161.443 35.6799 161.121 36.1749 160.637 36.5489C160.153 36.9155 159.548 37.0989 158.822 37.0989C158.25 37.0989 157.74 36.9705 157.293 36.7139C156.853 36.4572 156.508 36.0942 156.259 35.6249C156.009 35.1555 155.885 34.6055 155.885 33.9749Z" fill="black"/>
    <path d="M168.44 33.7549C168.44 33.9455 168.429 34.1472 168.407 34.3599H163.589C163.626 34.9539 163.828 35.4195 164.194 35.7569C164.568 36.0869 165.019 36.2519 165.547 36.2519C165.98 36.2519 166.339 36.1529 166.625 35.9549C166.919 35.7495 167.124 35.4782 167.241 35.1409H168.319C168.158 35.7202 167.835 36.1932 167.351 36.5599C166.867 36.9192 166.266 37.0989 165.547 37.0989C164.975 37.0989 164.462 36.9705 164.007 36.7139C163.56 36.4572 163.208 36.0942 162.951 35.6249C162.695 35.1482 162.566 34.5982 162.566 33.9749C162.566 33.3515 162.691 32.8052 162.94 32.3359C163.19 31.8665 163.538 31.5072 163.985 31.2579C164.44 31.0012 164.961 30.8729 165.547 30.8729C166.119 30.8729 166.625 30.9975 167.065 31.2469C167.505 31.4962 167.843 31.8409 168.077 32.2809C168.319 32.7135 168.44 33.2049 168.44 33.7549ZM167.406 33.5459C167.406 33.1645 167.322 32.8382 167.153 32.5669C166.985 32.2882 166.754 32.0792 166.46 31.9399C166.174 31.7932 165.855 31.7199 165.503 31.7199C164.997 31.7199 164.565 31.8812 164.205 32.2039C163.853 32.5265 163.652 32.9739 163.6 33.5459H167.406Z" fill="black"/>
    <path d="M172.699 30.8619C173.432 30.8619 174.026 31.0855 174.481 31.5329C174.935 31.9729 175.163 32.6109 175.163 33.4469V36.9999H174.173V33.5899C174.173 32.9885 174.022 32.5302 173.722 32.2149C173.421 31.8922 173.01 31.7309 172.49 31.7309C171.962 31.7309 171.54 31.8959 171.225 32.2259C170.917 32.5559 170.763 33.0362 170.763 33.6669V36.9999H169.762V30.9719H170.763V31.8299C170.961 31.5219 171.228 31.2835 171.566 31.1149C171.91 30.9462 172.288 30.8619 172.699 30.8619Z" fill="black"/>
    <path d="M178.019 31.7969V35.3499C178.019 35.6432 178.081 35.8522 178.206 35.9769C178.331 36.0942 178.547 36.1529 178.855 36.1529H179.592V36.9999H178.69C178.133 36.9999 177.715 36.8715 177.436 36.6149C177.157 36.3582 177.018 35.9365 177.018 35.3499V31.7969H176.237V30.9719H177.018V29.4539H178.019V30.9719H179.592V31.7969H178.019Z" fill="black"/>
    <path d="M186.305 33.7549C186.305 33.9455 186.294 34.1472 186.272 34.3599H181.454C181.49 34.9539 181.692 35.4195 182.059 35.7569C182.433 36.0869 182.884 36.2519 183.412 36.2519C183.844 36.2519 184.204 36.1529 184.49 35.9549C184.783 35.7495 184.988 35.4782 185.106 35.1409H186.184C186.022 35.7202 185.7 36.1932 185.216 36.5599C184.732 36.9192 184.13 37.0989 183.412 37.0989C182.84 37.0989 182.326 36.9705 181.872 36.7139C181.424 36.4572 181.072 36.0942 180.816 35.6249C180.559 35.1482 180.431 34.5982 180.431 33.9749C180.431 33.3515 180.555 32.8052 180.805 32.3359C181.054 31.8665 181.402 31.5072 181.85 31.2579C182.304 31.0012 182.825 30.8729 183.412 30.8729C183.984 30.8729 184.49 30.9975 184.93 31.2469C185.37 31.4962 185.707 31.8409 185.942 32.2809C186.184 32.7135 186.305 33.2049 186.305 33.7549ZM185.271 33.5459C185.271 33.1645 185.186 32.8382 185.018 32.5669C184.849 32.2882 184.618 32.0792 184.325 31.9399C184.039 31.7932 183.72 31.7199 183.368 31.7199C182.862 31.7199 182.429 31.8812 182.07 32.2039C181.718 32.5265 181.516 32.9739 181.465 33.5459H185.271Z" fill="black"/>
    <path d="M188.627 31.9509C188.803 31.6062 189.052 31.3385 189.375 31.1479C189.705 30.9572 190.105 30.8619 190.574 30.8619V31.8959H190.31C189.188 31.8959 188.627 32.5045 188.627 33.7219V36.9999H187.626V30.9719H188.627V31.9509Z" fill="black"/>
</svg>
