<svg width="1128" height="795" viewBox="0 0 1128 795" fill="none" xmlns="http://www.w3.org/2000/svg">
    <g style="mix-blend-mode:overlay">
        <path fill-rule="evenodd" clip-rule="evenodd" d="M284.728 767.677C193.223 820.507 77.499 791.276 26.2272 702.47C-25.0445 613.665 7.50244 498.829 99.0072 445.999C172.415 403.617 261.409 414.047 320.21 465.68C266.678 421.75 188.074 413.714 122.965 451.305C39.6607 499.4 9.99435 603.973 56.7031 684.875C103.412 765.777 208.808 792.372 292.112 744.276C357.219 706.687 389.562 634.598 378.287 566.275C393.598 643.013 358.134 725.296 284.728 767.677ZM285.228 768.543C193.269 821.635 76.9228 792.278 25.3612 702.97C-26.2004 613.663 6.5482 498.225 98.5072 445.133C190.466 392.04 306.813 421.398 358.374 510.705C409.936 600.012 377.187 715.45 285.228 768.543ZM291.612 743.41C208.762 791.244 103.988 764.775 57.5691 684.375C11.1502 603.975 40.6149 500.004 123.465 452.171C190.005 413.754 270.688 423.264 323.923 470.15C275.958 430.966 205.665 423.85 147.423 457.476C72.7741 500.574 46.1899 594.283 88.0458 666.779C129.902 739.276 224.348 763.107 298.997 720.009C357.241 686.381 386.225 621.943 376.269 560.811C390.26 630.358 358.155 704.992 291.612 743.41ZM245.755 483.028C278.055 464.38 317.314 469.38 342.701 492.711C322.582 477.082 293.713 474.478 269.713 488.334C238.339 506.448 227.166 545.833 244.757 576.302C262.349 606.772 302.044 616.788 333.418 598.674C357.417 584.818 369.596 558.516 366.122 533.278C373.632 566.929 358.332 603.427 326.034 622.075C286.459 644.923 236.436 632.27 214.281 593.897C192.126 555.525 206.18 505.877 245.755 483.028ZM346.473 497.253C326.663 478.611 295.674 474.5 270.213 489.2C239.293 507.052 228.322 545.835 245.623 575.802C262.925 605.77 301.998 615.66 332.918 597.808C358.379 583.108 370.313 554.216 364.074 527.74C366.278 545.803 357.463 564.499 340.302 574.407C317.583 587.524 288.838 580.271 276.1 558.207C263.361 536.143 271.452 507.623 294.171 494.506C311.332 484.598 331.931 486.312 346.473 497.253ZM221.297 476.856C260.445 454.254 307.988 460.155 338.948 488.193C313.256 467.857 276.103 464.352 245.255 482.162C205.226 505.273 190.971 555.523 213.415 594.397C235.86 633.272 286.504 646.052 326.534 622.941C357.381 605.131 372.922 571.206 368.158 538.789C376.957 579.619 358.295 623.74 319.15 646.341C270.92 674.187 209.947 658.771 182.939 611.992C155.932 565.214 173.067 504.702 221.297 476.856ZM335.182 483.67C298.651 450.93 242.83 444.132 196.839 470.685C139.954 503.527 119.736 574.904 151.597 630.088C183.457 685.272 255.38 703.451 312.265 670.608C358.257 644.055 380.28 592.313 370.19 544.305C376.245 583.899 357.342 625.445 319.65 647.207C270.965 675.315 209.37 659.773 182.073 612.492C154.776 565.212 172.113 504.098 220.797 475.99C258.489 454.228 303.92 458.631 335.182 483.67ZM172.381 464.513C225.222 434.006 289.331 441.708 331.43 479.163C294.6 449.409 240.882 444.102 196.339 469.819C139 502.923 118.58 574.902 150.731 630.588C182.881 686.274 255.426 704.579 312.765 671.474C357.308 645.758 379.571 596.581 372.218 549.808C383.607 604.996 358.223 664.368 305.381 694.876C239.841 732.715 156.967 711.773 120.254 648.184C83.5409 584.595 106.841 502.353 172.381 464.513ZM327.69 474.667C280.023 432.487 207.619 423.876 147.923 458.342C73.7283 501.178 47.3458 594.285 88.9118 666.279C130.478 738.274 224.302 761.979 298.497 719.143C358.192 684.677 386.937 617.67 374.242 555.299C382.901 609.256 357.278 666.068 305.881 695.742C239.887 733.844 156.391 712.775 119.388 648.684C82.385 584.593 105.887 501.749 171.881 463.647C223.279 433.973 285.292 440.189 327.69 474.667ZM339.802 573.541C317.537 586.396 289.415 579.269 276.966 557.707C264.517 536.145 272.406 508.227 294.671 495.372C316.936 482.517 345.058 489.644 357.507 511.206C369.956 532.768 362.067 560.686 339.802 573.541Z" fill="white"/>
    </g>
    <g style="mix-blend-mode:overlay">
        <path fill-rule="evenodd" clip-rule="evenodd" d="M618.247 159.39C718.822 159.39 800.294 238.563 800.294 336.153C800.294 433.744 718.822 512.916 618.247 512.916C533.038 512.916 461.541 456.088 441.683 379.377C460.667 439.089 517.951 482.477 585.67 482.477C668.883 482.477 736.34 416.965 736.34 336.152C736.34 255.339 668.883 189.827 585.67 189.827C517.954 189.827 460.672 233.211 441.685 292.92C461.546 216.214 533.041 159.39 618.247 159.39ZM585.67 481.277C515.401 481.277 456.496 434.211 440.492 370.817C455.623 417.213 500.315 450.838 553.094 450.838C618.315 450.838 671.186 399.491 671.186 336.151C671.186 272.811 618.315 221.464 553.094 221.464C500.317 221.464 455.627 255.087 440.494 301.479C456.501 238.09 515.404 191.027 585.67 191.027C668.254 191.027 735.14 256.035 735.14 336.152C735.14 416.27 668.254 481.277 585.67 481.277ZM436.202 336.192C436.202 336.178 436.202 336.165 436.202 336.151C436.202 336.148 436.202 336.145 436.202 336.143C436.207 290.975 473.921 254.302 520.517 254.302C567.116 254.302 604.832 290.98 604.832 336.151C604.832 381.323 567.116 418.001 520.517 418.001C473.931 418.001 436.224 381.344 436.202 336.192ZM439.305 310.066C450.568 276.978 482.671 253.102 520.517 253.102C567.746 253.102 606.032 290.284 606.032 336.151C606.032 382.018 567.746 419.201 520.517 419.201C482.671 419.201 450.568 395.325 439.305 362.237C451.442 412.322 497.758 449.638 553.094 449.638C617.685 449.638 669.986 398.796 669.986 336.151C669.986 273.507 617.685 222.664 553.094 222.664C497.758 222.664 451.442 259.981 439.305 310.066ZM442.879 284.369C465.713 211.34 535.589 158.19 618.247 158.19C719.451 158.19 801.494 237.867 801.494 336.153C801.494 434.439 719.451 514.116 618.247 514.116C535.592 514.116 465.719 460.97 442.881 387.946C466.594 477.968 550.68 544.553 650.824 544.553C769.391 544.553 865.448 451.216 865.448 336.152C865.448 221.089 769.391 127.752 650.824 127.752C550.676 127.752 466.587 194.342 442.879 284.369ZM435 336.153L435 336.124L435 336.118L435 336.107C435.025 150.476 589.984 0.000245989 781.133 0.000248268C972.297 0.000250548 1127.27 150.501 1127.27 336.152C1127.27 521.804 972.297 672.304 781.133 672.304C589.984 672.304 435.025 521.828 435 336.197L435 336.194L435 336.193L435 336.153ZM650.824 126.552C553.228 126.552 470.762 189.464 444.079 275.808C471.638 172.465 568.316 96.1138 683.402 96.1138C819.961 96.1138 930.603 203.615 930.603 336.152C930.603 468.689 819.961 576.19 683.402 576.19C568.317 576.19 471.638 499.839 444.079 396.497C470.762 482.841 553.228 545.753 650.824 545.753C770.02 545.753 866.648 451.911 866.648 336.152C866.648 220.393 770.02 126.552 650.824 126.552ZM995.757 336.152C995.757 186.142 870.529 64.4759 715.978 64.4759C585.927 64.4759 476.639 150.627 445.258 267.322C475.764 167.625 570.84 94.9138 683.402 94.9138C820.59 94.9138 931.803 202.92 931.803 336.152C931.803 469.384 820.59 577.39 683.402 577.39C570.84 577.39 475.764 504.679 445.258 404.982C476.639 521.677 585.927 607.828 715.978 607.828C870.529 607.828 995.757 486.162 995.757 336.152ZM715.978 63.2759C588.491 63.2759 480.835 145.733 446.471 258.727C481.711 128.734 603.58 32.8372 748.557 32.8372C921.1 32.8372 1060.91 168.668 1060.91 336.151C1060.91 503.634 921.1 639.465 748.557 639.465C603.587 639.465 481.721 543.577 446.475 413.592C480.844 526.578 588.497 609.028 715.978 609.028C871.158 609.028 996.957 486.857 996.957 336.152C996.957 185.447 871.158 63.2759 715.978 63.2759ZM781.133 1.20026C971.667 1.20026 1126.07 151.196 1126.07 336.152C1126.07 521.108 971.667 671.104 781.133 671.104C621.162 671.104 486.664 565.37 447.631 421.985C485.791 548.372 606.076 640.665 748.557 640.665C921.729 640.665 1062.11 504.33 1062.11 336.151C1062.11 167.973 921.729 31.6372 748.557 31.6372C606.082 31.6372 485.801 123.923 447.636 250.301C486.675 106.925 621.169 1.20026 781.133 1.20026Z" fill="white"/>
    </g>
</svg>
