<svg width="218" height="42" viewBox="0 0 218 42" fill="none" xmlns="http://www.w3.org/2000/svg">
<path d="M35.5229 22.1133C38.5868 22.1133 40.4252 19.892 40.4252 17.2493C40.4252 14.6258 38.5868 12.4044 35.5229 12.4044C32.478 12.4044 30.6396 14.6258 30.6396 17.2493C30.6396 19.892 32.478 22.1133 35.5229 22.1133ZM35.5229 19.9494C34.01 19.9494 33.1674 18.7047 33.1674 17.2493C33.1674 15.8131 34.01 14.5683 35.5229 14.5683C37.0357 14.5683 37.8974 15.8131 37.8974 17.2493C37.8974 18.7047 37.0357 19.9494 35.5229 19.9494Z" fill="#6344DF"/>
<path d="M42.2295 21.8836H44.6615V15.7748C45.0637 15.1811 46.1361 14.7407 46.9403 14.7407C47.2084 14.7407 47.4382 14.7598 47.6106 14.7981V12.4235C46.4616 12.4235 45.3126 13.0746 44.6615 13.8981V12.6342H42.2295V21.8836Z" fill="#6344DF"/>
<path d="M50.3366 11.2745C51.1409 11.2745 51.792 10.6235 51.792 9.81916C51.792 9.01486 51.1409 8.36377 50.3366 8.36377C49.5515 8.36377 48.8812 9.01486 48.8812 9.81916C48.8812 10.6235 49.5515 11.2745 50.3366 11.2745ZM49.1302 21.8836H51.5622V12.6342H49.1302V21.8836Z" fill="#6344DF"/>
<path d="M53.7822 24.2581C54.9312 25.2731 56.176 25.6369 57.7654 25.6369C60.0442 25.6369 62.7635 24.7752 62.7635 21.2516V12.6342H60.3123V13.8215C59.5655 12.8831 58.5697 12.4044 57.459 12.4044C55.1227 12.4044 53.3801 14.0896 53.3801 17.1152C53.3801 20.1984 55.1419 21.8261 57.459 21.8261C58.5888 21.8261 59.5846 21.2899 60.3123 20.3707V21.3091C60.3123 23.1283 58.9335 23.6453 57.7654 23.6453C56.5972 23.6453 55.6206 23.3198 54.8738 22.4963L53.7822 24.2581ZM60.3123 18.6089C59.9102 19.2026 59.0293 19.6622 58.225 19.6622C56.8462 19.6622 55.8887 18.7047 55.8887 17.1152C55.8887 15.5258 56.8462 14.5683 58.225 14.5683C59.0293 14.5683 59.9102 15.0088 60.3123 15.6216V18.6089Z" fill="#6344DF"/>
<path d="M66.3821 11.2745C67.1864 11.2745 67.8375 10.6235 67.8375 9.81916C67.8375 9.01486 67.1864 8.36377 66.3821 8.36377C65.5969 8.36377 64.9267 9.01486 64.9267 9.81916C64.9267 10.6235 65.5969 11.2745 66.3821 11.2745ZM65.1756 21.8836H67.6077V12.6342H65.1756V21.8836Z" fill="#6344DF"/>
<path d="M76.262 21.8836H78.6941V15.3535C78.6941 13.5534 77.7174 12.4044 75.6875 12.4044C74.1747 12.4044 73.0449 13.1321 72.4512 13.8406V12.6342H70.0192V21.8836H72.4512V15.6599C72.8534 15.1045 73.6002 14.5683 74.5577 14.5683C75.5918 14.5683 76.262 15.0088 76.262 16.2918V21.8836Z" fill="#6344DF"/>
<path d="M84.2112 22.1133C85.2261 22.1133 85.8772 21.8453 86.241 21.5197L85.724 19.6813C85.5899 19.8154 85.2453 19.9494 84.8814 19.9494C84.3452 19.9494 84.0388 19.509 84.0388 18.9345V14.7598H85.9155V12.6342H84.0388V10.1064H81.5876V12.6342H80.0556V14.7598H81.5876V19.5856C81.5876 21.2325 82.5068 22.1133 84.2112 22.1133Z" fill="#6344DF"/>
<path d="M87.5794 21.8836H90.0115V15.7748C90.4136 15.1811 91.486 14.7407 92.2903 14.7407C92.5584 14.7407 92.7882 14.7598 92.9605 14.7981V12.4235C91.8115 12.4235 90.6626 13.0746 90.0115 13.8981V12.6342H87.5794V21.8836Z" fill="#6344DF"/>
<path d="M100.838 21.8836H103.289V12.6342H100.838V13.8215C100.11 12.8831 99.0761 12.4044 97.9845 12.4044C95.6291 12.4044 93.8865 14.2428 93.8865 17.2684C93.8865 20.3516 95.6482 22.1133 97.9845 22.1133C99.0952 22.1133 100.11 21.6155 100.838 20.7154V21.8836ZM100.838 18.8962C100.417 19.509 99.5548 19.9494 98.7314 19.9494C97.3526 19.9494 96.3951 18.8579 96.3951 17.2684C96.3951 15.6599 97.3526 14.5875 98.7314 14.5875C99.5548 14.5875 100.417 15.0279 100.838 15.6407V18.8962Z" fill="#6344DF"/>
<path d="M106.907 11.2745C107.711 11.2745 108.363 10.6235 108.363 9.81916C108.363 9.01486 107.711 8.36377 106.907 8.36377C106.122 8.36377 105.452 9.01486 105.452 9.81916C105.452 10.6235 106.122 11.2745 106.907 11.2745ZM105.701 21.8836H108.133V12.6342H105.701V21.8836Z" fill="#6344DF"/>
<path d="M113.149 22.1133C114.144 22.1133 114.796 21.8453 115.159 21.5197L114.642 19.6813C114.527 19.8154 114.183 19.9494 113.819 19.9494C113.283 19.9494 112.976 19.509 112.976 18.9345V9.11061H110.544V19.5856C110.544 21.2325 111.444 22.1133 113.149 22.1133Z" fill="#6344DF"/>
<path fill-rule="evenodd" clip-rule="evenodd" d="M12.7665 10.5831C9.22287 10.5831 6.34969 13.4558 6.34969 16.9999C6.34969 20.5436 9.22287 23.4163 12.7665 23.4163C14.7362 23.4163 16.4983 22.5285 17.6753 21.1315L22.5333 25.2204C20.1914 27.9999 16.6855 29.7665 12.7665 29.7665C5.71554 29.7665 0 24.0505 0 16.9999C0 9.94894 5.71554 4.2334 12.7665 4.2334V10.5831ZM23.7977 23.4286L18.3107 20.231C18.498 19.9104 18.6583 19.5723 18.7884 19.2195L24.7482 21.416C24.4894 22.1181 24.1702 22.7908 23.7977 23.4286ZM19.1829 16.9998H25.5331C25.5331 16.2435 25.4668 15.5028 25.3407 14.7826L19.0863 15.8854C19.1496 16.2474 19.1829 16.6197 19.1829 16.9998ZM22.5801 8.83459L17.699 12.896C17.4599 12.609 17.1962 12.3434 16.9113 12.102L21.0128 7.25484C21.5798 7.73511 22.1045 8.26359 22.5801 8.83459Z" fill="#6344DF"/>
<path d="M135.115 17.6147H129.619V22.5H127.141V10.8624H129.619V15.4337H135.115V10.8624H137.61V22.5H135.115V17.6147ZM143.759 22.7094C142.864 22.7094 142.078 22.5116 141.404 22.1162C140.729 21.7207 140.212 21.1856 139.851 20.511C139.49 19.8363 139.31 19.0919 139.31 18.2777C139.31 17.4751 139.49 16.7365 139.851 16.0618C140.212 15.3872 140.729 14.8521 141.404 14.4566C142.078 14.0612 142.864 13.8634 143.759 13.8634C144.666 13.8634 145.457 14.0612 146.132 14.4566C146.807 14.8521 147.324 15.3872 147.685 16.0618C148.045 16.7365 148.226 17.4751 148.226 18.2777C148.226 19.0919 148.045 19.8363 147.685 20.511C147.324 21.1856 146.807 21.7207 146.132 22.1162C145.457 22.5116 144.666 22.7094 143.759 22.7094ZM143.759 20.7378C144.422 20.7378 144.946 20.5052 145.329 20.0399C145.725 19.563 145.923 18.9756 145.923 18.2777C145.923 17.5914 145.725 17.0156 145.329 16.5504C144.946 16.0735 144.422 15.835 143.759 15.835C143.096 15.835 142.573 16.0735 142.189 16.5504C141.805 17.0156 141.613 17.5914 141.613 18.2777C141.613 18.9756 141.805 19.563 142.189 20.0399C142.573 20.5052 143.096 20.7378 143.759 20.7378ZM155.558 21.4357C155.232 21.7963 154.813 22.0987 154.301 22.343C153.801 22.5872 153.231 22.7094 152.592 22.7094C151.684 22.7094 151.004 22.4767 150.55 22.0115C150.097 21.5462 149.87 20.8948 149.87 20.0573V14.0728H152.086V19.185C152.086 19.7433 152.219 20.1446 152.487 20.3888C152.754 20.6215 153.138 20.7378 153.638 20.7378C154.034 20.7378 154.4 20.6447 154.738 20.4586C155.075 20.2725 155.348 20.0457 155.558 19.7782V14.0728H157.773V22.5H155.558V21.4357ZM160.2 19.848C160.526 20.1504 160.968 20.4179 161.526 20.6506C162.085 20.8832 162.614 20.9995 163.114 20.9995C163.579 20.9995 163.928 20.9239 164.161 20.7727C164.405 20.6215 164.527 20.4121 164.527 20.1446C164.527 19.877 164.388 19.6735 164.109 19.5339C163.83 19.3943 163.405 19.2664 162.835 19.1501C162.16 19.0221 161.602 18.8825 161.16 18.7313C160.718 18.5801 160.334 18.33 160.009 17.9811C159.683 17.6205 159.52 17.1319 159.52 16.5155C159.52 16.0386 159.654 15.5966 159.921 15.1894C160.2 14.7823 160.602 14.4625 161.125 14.2298C161.649 13.9856 162.265 13.8634 162.975 13.8634C164.277 13.8634 165.406 14.2473 166.359 15.015L165.487 16.5329C165.22 16.2537 164.859 16.0211 164.405 15.835C163.963 15.6489 163.492 15.5558 162.992 15.5558C162.585 15.5558 162.259 15.6256 162.015 15.7652C161.782 15.9048 161.666 16.0967 161.666 16.341C161.666 16.5853 161.794 16.7714 162.05 16.8993C162.317 17.0156 162.725 17.1319 163.271 17.2483C163.946 17.3762 164.51 17.5216 164.964 17.6845C165.417 17.8473 165.813 18.1148 166.15 18.487C166.487 18.8593 166.656 19.3652 166.656 20.005C166.656 20.8076 166.33 21.459 165.679 21.9591C165.039 22.4593 164.149 22.7094 163.01 22.7094C162.277 22.7094 161.573 22.5931 160.898 22.3604C160.235 22.1278 159.683 21.8079 159.241 21.4008L160.2 19.848ZM171.115 22.7094C170.336 22.7094 169.742 22.5116 169.335 22.1162C168.928 21.7207 168.725 21.1507 168.725 20.4063V16.0095H167.329V14.0728H168.725V11.7697H170.958V14.0728H172.668V16.0095H170.958V19.8131C170.958 20.0806 171.028 20.3016 171.167 20.4761C171.307 20.6506 171.493 20.7378 171.726 20.7378C171.889 20.7378 172.04 20.7145 172.179 20.668C172.319 20.6215 172.424 20.5633 172.493 20.4935L172.964 22.1685C172.557 22.5291 171.941 22.7094 171.115 22.7094ZM178.092 22.7094C177.197 22.7094 176.411 22.5116 175.737 22.1162C175.062 21.7207 174.544 21.1856 174.184 20.511C173.823 19.8363 173.643 19.0919 173.643 18.2777C173.643 17.4751 173.823 16.7365 174.184 16.0618C174.544 15.3872 175.062 14.8521 175.737 14.4566C176.411 14.0612 177.197 13.8634 178.092 13.8634C178.999 13.8634 179.79 14.0612 180.465 14.4566C181.14 14.8521 181.657 15.3872 182.018 16.0618C182.378 16.7365 182.559 17.4751 182.559 18.2777C182.559 19.0919 182.378 19.8363 182.018 20.511C181.657 21.1856 181.14 21.7207 180.465 22.1162C179.79 22.5116 178.999 22.7094 178.092 22.7094ZM178.092 20.7378C178.755 20.7378 179.279 20.5052 179.662 20.0399C180.058 19.563 180.256 18.9756 180.256 18.2777C180.256 17.5914 180.058 17.0156 179.662 16.5504C179.279 16.0735 178.755 15.835 178.092 15.835C177.429 15.835 176.906 16.0735 176.522 16.5504C176.138 17.0156 175.946 17.5914 175.946 18.2777C175.946 18.9756 176.138 19.563 176.522 20.0399C176.906 20.5052 177.429 20.7378 178.092 20.7378ZM189.891 17.4053C189.891 16.847 189.757 16.4457 189.489 16.2014C189.222 15.9571 188.838 15.835 188.338 15.835C187.931 15.835 187.558 15.9339 187.221 16.1316C186.895 16.3177 186.628 16.5504 186.419 16.8295V22.5H184.203V14.0728H186.419V15.172C186.721 14.8114 187.128 14.5032 187.64 14.2473C188.152 13.9914 188.727 13.8634 189.367 13.8634C190.274 13.8634 190.955 14.1019 191.409 14.5788C191.874 15.0557 192.106 15.7129 192.106 16.5504V22.5H189.891V17.4053ZM197.567 14.0728H199.94L202.138 19.9352L204.337 14.0728H206.727L203.342 22.5H200.952L197.567 14.0728ZM207.21 16.7074C207.21 15.5326 207.425 14.4915 207.856 13.5843C208.286 12.6654 208.908 11.9558 209.723 11.4557C210.537 10.9439 211.508 10.688 212.636 10.688C213.323 10.688 213.956 10.7985 214.538 11.0195C215.12 11.2288 215.631 11.5196 216.073 11.8918L214.957 13.7587C214.631 13.4447 214.282 13.212 213.91 13.0608C213.549 12.9096 213.125 12.834 212.636 12.834C212.066 12.834 211.56 12.9852 211.118 13.2877C210.676 13.5901 210.333 13.9972 210.089 14.509C209.845 15.0208 209.723 15.5849 209.723 16.2014C209.723 16.3177 209.728 16.3991 209.74 16.4457C210.031 16.0269 210.45 15.678 210.996 15.3988C211.543 15.108 212.119 14.9626 212.724 14.9626C213.445 14.9626 214.102 15.108 214.695 15.3988C215.3 15.678 215.783 16.1025 216.143 16.6725C216.504 17.2424 216.684 17.9229 216.684 18.7139C216.684 19.4699 216.498 20.1504 216.126 20.7552C215.754 21.3601 215.23 21.837 214.556 22.1859C213.881 22.5349 213.107 22.7094 212.235 22.7094C211.095 22.7094 210.147 22.4477 209.391 21.9242C208.647 21.3892 208.094 20.6738 207.734 19.7782C207.385 18.8709 207.21 17.8473 207.21 16.7074ZM214.172 18.8186C214.172 18.2253 213.962 17.7775 213.544 17.4751C213.136 17.1727 212.625 17.0214 212.008 17.0214C211.578 17.0214 211.159 17.1203 210.752 17.3181C210.356 17.5158 210.019 17.7891 209.74 18.1381C209.798 18.7895 210.019 19.3536 210.403 19.8305C210.798 20.3074 211.368 20.5459 212.113 20.5459C212.543 20.5459 212.91 20.4644 213.212 20.3016C213.526 20.1271 213.765 19.9061 213.927 19.6386C214.09 19.3711 214.172 19.0977 214.172 18.8186Z" fill="#131415"/>
<path d="M97.932 33.544V40H96.936V31.996H97.956L102.564 38.32V31.996H103.56V40H102.6L97.932 33.544ZM107.928 40.144C107.352 40.144 106.848 40.008 106.416 39.736C105.984 39.464 105.648 39.096 105.408 38.632C105.176 38.168 105.06 37.656 105.06 37.096C105.06 36.536 105.176 36.024 105.408 35.56C105.648 35.096 105.984 34.732 106.416 34.468C106.848 34.196 107.352 34.06 107.928 34.06C108.504 34.06 109.008 34.196 109.44 34.468C109.872 34.732 110.204 35.096 110.436 35.56C110.676 36.024 110.796 36.536 110.796 37.096C110.796 37.656 110.676 38.168 110.436 38.632C110.204 39.096 109.872 39.464 109.44 39.736C109.008 40.008 108.504 40.144 107.928 40.144ZM107.928 39.34C108.328 39.34 108.672 39.24 108.96 39.04C109.248 38.832 109.468 38.556 109.62 38.212C109.772 37.868 109.848 37.496 109.848 37.096C109.848 36.696 109.772 36.328 109.62 35.992C109.468 35.648 109.248 35.376 108.96 35.176C108.672 34.968 108.328 34.864 107.928 34.864C107.528 34.864 107.18 34.968 106.884 35.176C106.596 35.376 106.376 35.648 106.224 35.992C106.072 36.328 105.996 36.696 105.996 37.096C105.996 37.496 106.072 37.868 106.224 38.212C106.376 38.556 106.596 38.832 106.884 39.04C107.18 39.24 107.528 39.34 107.928 39.34ZM116.463 39.136C116.239 39.44 115.955 39.684 115.611 39.868C115.267 40.052 114.899 40.144 114.507 40.144C114.003 40.144 113.555 40.024 113.163 39.784C112.779 39.536 112.475 39.184 112.251 38.728C112.035 38.264 111.927 37.724 111.927 37.108C111.927 36.5 112.035 35.968 112.251 35.512C112.467 35.048 112.771 34.692 113.163 34.444C113.555 34.188 114.003 34.06 114.507 34.06C114.891 34.06 115.251 34.152 115.587 34.336C115.931 34.512 116.223 34.76 116.463 35.08V31.996H117.363V40H116.463V39.136ZM116.463 35.8C116.295 35.536 116.047 35.316 115.719 35.14C115.399 34.956 115.067 34.864 114.723 34.864C114.155 34.864 113.703 35.076 113.367 35.5C113.031 35.916 112.863 36.452 112.863 37.108C112.863 37.764 113.031 38.3 113.367 38.716C113.703 39.132 114.155 39.34 114.723 39.34C115.075 39.34 115.411 39.252 115.731 39.076C116.051 38.9 116.295 38.684 116.463 38.428V35.8ZM118.83 37.096C118.83 36.544 118.954 36.036 119.202 35.572C119.45 35.108 119.79 34.74 120.222 34.468C120.654 34.196 121.142 34.06 121.686 34.06C122.254 34.06 122.746 34.196 123.162 34.468C123.586 34.74 123.91 35.112 124.134 35.584C124.358 36.056 124.47 36.584 124.47 37.168V37.396H119.778C119.818 37.964 120.026 38.44 120.402 38.824C120.778 39.208 121.266 39.4 121.866 39.4C122.202 39.4 122.526 39.336 122.838 39.208C123.158 39.08 123.43 38.9 123.654 38.668L124.086 39.256C123.494 39.848 122.726 40.144 121.782 40.144C121.214 40.144 120.706 40.016 120.258 39.76C119.81 39.504 119.458 39.144 119.202 38.68C118.954 38.216 118.83 37.688 118.83 37.096ZM121.674 34.804C121.282 34.804 120.946 34.9 120.666 35.092C120.386 35.284 120.17 35.528 120.018 35.824C119.874 36.12 119.794 36.424 119.778 36.736H123.582C123.574 36.424 123.498 36.12 123.354 35.824C123.218 35.528 123.006 35.284 122.718 35.092C122.438 34.9 122.09 34.804 121.674 34.804ZM128.685 37.096C128.685 36.528 128.805 36.012 129.045 35.548C129.293 35.084 129.633 34.72 130.065 34.456C130.505 34.192 131.009 34.06 131.577 34.06C132.073 34.06 132.489 34.148 132.825 34.324C133.161 34.5 133.453 34.748 133.701 35.068L133.101 35.62C132.733 35.116 132.241 34.864 131.625 34.864C131.017 34.864 130.529 35.072 130.161 35.488C129.801 35.904 129.621 36.44 129.621 37.096C129.621 37.752 129.801 38.292 130.161 38.716C130.529 39.132 131.017 39.34 131.625 39.34C132.233 39.34 132.725 39.088 133.101 38.584L133.701 39.136C133.453 39.456 133.161 39.704 132.825 39.88C132.489 40.056 132.073 40.144 131.577 40.144C131.009 40.144 130.505 40.012 130.065 39.748C129.633 39.484 129.293 39.12 129.045 38.656C128.805 38.192 128.685 37.672 128.685 37.096ZM137.495 40.144C136.919 40.144 136.415 40.008 135.983 39.736C135.551 39.464 135.215 39.096 134.975 38.632C134.743 38.168 134.627 37.656 134.627 37.096C134.627 36.536 134.743 36.024 134.975 35.56C135.215 35.096 135.551 34.732 135.983 34.468C136.415 34.196 136.919 34.06 137.495 34.06C138.071 34.06 138.575 34.196 139.007 34.468C139.439 34.732 139.771 35.096 140.003 35.56C140.243 36.024 140.363 36.536 140.363 37.096C140.363 37.656 140.243 38.168 140.003 38.632C139.771 39.096 139.439 39.464 139.007 39.736C138.575 40.008 138.071 40.144 137.495 40.144ZM137.495 39.34C137.895 39.34 138.239 39.24 138.527 39.04C138.815 38.832 139.035 38.556 139.187 38.212C139.339 37.868 139.415 37.496 139.415 37.096C139.415 36.696 139.339 36.328 139.187 35.992C139.035 35.648 138.815 35.376 138.527 35.176C138.239 34.968 137.895 34.864 137.495 34.864C137.095 34.864 136.747 34.968 136.451 35.176C136.163 35.376 135.943 35.648 135.791 35.992C135.639 36.328 135.562 36.696 135.562 37.096C135.562 37.496 135.639 37.868 135.791 38.212C135.943 38.556 136.163 38.832 136.451 39.04C136.747 39.24 137.095 39.34 137.495 39.34ZM148.826 36.064C148.826 35.688 148.738 35.396 148.562 35.188C148.386 34.972 148.118 34.864 147.758 34.864C147.47 34.864 147.182 34.952 146.894 35.128C146.606 35.304 146.382 35.512 146.222 35.752V40H145.322V36.064C145.322 35.264 144.966 34.864 144.254 34.864C143.974 34.864 143.69 34.952 143.402 35.128C143.122 35.304 142.898 35.516 142.73 35.764V40H141.83V34.204H142.73V35.044C142.874 34.82 143.126 34.6 143.486 34.384C143.846 34.168 144.218 34.06 144.602 34.06C145.026 34.06 145.37 34.16 145.634 34.36C145.898 34.56 146.074 34.82 146.162 35.14C146.338 34.852 146.606 34.6 146.966 34.384C147.326 34.168 147.706 34.06 148.106 34.06C148.634 34.06 149.034 34.208 149.306 34.504C149.586 34.8 149.726 35.236 149.726 35.812V40H148.826V36.064ZM158.517 36.064C158.517 35.688 158.429 35.396 158.253 35.188C158.077 34.972 157.809 34.864 157.449 34.864C157.161 34.864 156.873 34.952 156.585 35.128C156.297 35.304 156.073 35.512 155.913 35.752V40H155.013V36.064C155.013 35.264 154.657 34.864 153.945 34.864C153.665 34.864 153.381 34.952 153.093 35.128C152.813 35.304 152.589 35.516 152.421 35.764V40H151.521V34.204H152.421V35.044C152.565 34.82 152.817 34.6 153.177 34.384C153.537 34.168 153.909 34.06 154.293 34.06C154.717 34.06 155.061 34.16 155.325 34.36C155.589 34.56 155.765 34.82 155.853 35.14C156.029 34.852 156.297 34.6 156.657 34.384C157.017 34.168 157.397 34.06 157.797 34.06C158.325 34.06 158.725 34.208 158.997 34.504C159.277 34.8 159.417 35.236 159.417 35.812V40H158.517V36.064ZM165.413 39.136C165.189 39.44 164.905 39.684 164.561 39.868C164.217 40.052 163.849 40.144 163.457 40.144C162.953 40.144 162.505 40.024 162.113 39.784C161.729 39.536 161.425 39.184 161.201 38.728C160.985 38.264 160.877 37.724 160.877 37.108C160.877 36.5 160.985 35.968 161.201 35.512C161.417 35.048 161.721 34.692 162.113 34.444C162.505 34.188 162.953 34.06 163.457 34.06C163.841 34.06 164.201 34.152 164.537 34.336C164.881 34.512 165.173 34.76 165.413 35.08V34.204H166.312V40H165.413V39.136ZM165.413 35.8C165.245 35.536 164.997 35.316 164.669 35.14C164.349 34.956 164.017 34.864 163.673 34.864C163.105 34.864 162.653 35.076 162.317 35.5C161.981 35.916 161.812 36.452 161.812 37.108C161.812 37.764 161.981 38.3 162.317 38.716C162.653 39.132 163.105 39.34 163.673 39.34C164.025 39.34 164.361 39.252 164.681 39.076C165.001 38.9 165.245 38.684 165.413 38.428V35.8ZM172.027 36.208C172.027 35.72 171.915 35.376 171.691 35.176C171.467 34.968 171.147 34.864 170.731 34.864C170.395 34.864 170.067 34.952 169.747 35.128C169.435 35.304 169.191 35.516 169.015 35.764V40H168.115V34.204H169.015V35.044C169.239 34.78 169.539 34.552 169.915 34.36C170.291 34.16 170.679 34.06 171.079 34.06C172.311 34.06 172.927 34.684 172.927 35.932V40H172.027V36.208ZM178.924 39.136C178.7 39.44 178.416 39.684 178.072 39.868C177.728 40.052 177.36 40.144 176.968 40.144C176.464 40.144 176.016 40.024 175.624 39.784C175.24 39.536 174.936 39.184 174.712 38.728C174.496 38.264 174.388 37.724 174.388 37.108C174.388 36.5 174.496 35.968 174.712 35.512C174.928 35.048 175.232 34.692 175.624 34.444C176.016 34.188 176.464 34.06 176.968 34.06C177.352 34.06 177.712 34.152 178.048 34.336C178.392 34.512 178.684 34.76 178.924 35.08V31.996H179.824V40H178.924V39.136ZM178.924 35.8C178.756 35.536 178.508 35.316 178.18 35.14C177.86 34.956 177.528 34.864 177.184 34.864C176.616 34.864 176.164 35.076 175.828 35.5C175.492 35.916 175.324 36.452 175.324 37.108C175.324 37.764 175.492 38.3 175.828 38.716C176.164 39.132 176.616 39.34 177.184 39.34C177.536 39.34 177.872 39.252 178.192 39.076C178.512 38.9 178.756 38.684 178.924 38.428V35.8ZM184.384 37.096C184.384 36.528 184.504 36.012 184.744 35.548C184.992 35.084 185.332 34.72 185.764 34.456C186.204 34.192 186.708 34.06 187.276 34.06C187.772 34.06 188.188 34.148 188.524 34.324C188.86 34.5 189.152 34.748 189.4 35.068L188.8 35.62C188.432 35.116 187.94 34.864 187.324 34.864C186.716 34.864 186.228 35.072 185.86 35.488C185.5 35.904 185.32 36.44 185.32 37.096C185.32 37.752 185.5 38.292 185.86 38.716C186.228 39.132 186.716 39.34 187.324 39.34C187.932 39.34 188.424 39.088 188.8 38.584L189.4 39.136C189.152 39.456 188.86 39.704 188.524 39.88C188.188 40.056 187.772 40.144 187.276 40.144C186.708 40.144 186.204 40.012 185.764 39.748C185.332 39.484 184.992 39.12 184.744 38.656C184.504 38.192 184.384 37.672 184.384 37.096ZM190.326 37.096C190.326 36.544 190.45 36.036 190.698 35.572C190.946 35.108 191.286 34.74 191.718 34.468C192.15 34.196 192.638 34.06 193.182 34.06C193.75 34.06 194.242 34.196 194.658 34.468C195.082 34.74 195.406 35.112 195.63 35.584C195.854 36.056 195.966 36.584 195.966 37.168V37.396H191.274C191.314 37.964 191.522 38.44 191.898 38.824C192.274 39.208 192.762 39.4 193.362 39.4C193.698 39.4 194.022 39.336 194.334 39.208C194.654 39.08 194.926 38.9 195.15 38.668L195.582 39.256C194.99 39.848 194.222 40.144 193.278 40.144C192.71 40.144 192.202 40.016 191.754 39.76C191.306 39.504 190.954 39.144 190.698 38.68C190.45 38.216 190.326 37.688 190.326 37.096ZM193.17 34.804C192.778 34.804 192.442 34.9 192.162 35.092C191.882 35.284 191.666 35.528 191.514 35.824C191.37 36.12 191.29 36.424 191.274 36.736H195.078C195.07 36.424 194.994 36.12 194.85 35.824C194.714 35.528 194.502 35.284 194.214 35.092C193.934 34.9 193.586 34.804 193.17 34.804ZM201.335 36.208C201.335 35.72 201.223 35.376 200.999 35.176C200.775 34.968 200.455 34.864 200.039 34.864C199.703 34.864 199.375 34.952 199.055 35.128C198.743 35.304 198.499 35.516 198.323 35.764V40H197.423V34.204H198.323V35.044C198.547 34.78 198.847 34.552 199.223 34.36C199.599 34.16 199.987 34.06 200.387 34.06C201.619 34.06 202.235 34.684 202.235 35.932V40H201.335V36.208ZM205.497 40.144C205.073 40.144 204.753 40.028 204.537 39.796C204.321 39.564 204.213 39.228 204.213 38.788V34.996H203.253V34.204H204.213V32.62H205.113V34.204H206.289V34.996H205.113V38.596C205.113 38.82 205.161 39 205.257 39.136C205.361 39.272 205.509 39.34 205.701 39.34C205.821 39.34 205.937 39.32 206.049 39.28C206.161 39.232 206.249 39.172 206.313 39.1L206.577 39.772C206.313 40.02 205.953 40.144 205.497 40.144ZM207.224 37.096C207.224 36.544 207.348 36.036 207.596 35.572C207.844 35.108 208.184 34.74 208.616 34.468C209.048 34.196 209.536 34.06 210.08 34.06C210.648 34.06 211.14 34.196 211.556 34.468C211.98 34.74 212.304 35.112 212.528 35.584C212.752 36.056 212.864 36.584 212.864 37.168V37.396H208.172C208.212 37.964 208.42 38.44 208.796 38.824C209.172 39.208 209.66 39.4 210.26 39.4C210.596 39.4 210.92 39.336 211.232 39.208C211.552 39.08 211.824 38.9 212.048 38.668L212.48 39.256C211.888 39.848 211.12 40.144 210.176 40.144C209.608 40.144 209.1 40.016 208.652 39.76C208.204 39.504 207.852 39.144 207.596 38.68C207.348 38.216 207.224 37.688 207.224 37.096ZM210.068 34.804C209.676 34.804 209.34 34.9 209.06 35.092C208.78 35.284 208.564 35.528 208.412 35.824C208.268 36.12 208.188 36.424 208.172 36.736H211.976C211.968 36.424 211.892 36.12 211.748 35.824C211.612 35.528 211.4 35.284 211.112 35.092C210.832 34.9 210.484 34.804 210.068 34.804ZM214.322 34.204H215.222V35.14C215.47 34.82 215.758 34.564 216.086 34.372C216.422 34.18 216.778 34.084 217.154 34.084V35.008C217.042 34.984 216.922 34.972 216.794 34.972C216.522 34.972 216.226 35.068 215.906 35.26C215.586 35.452 215.358 35.664 215.222 35.896V40H214.322V34.204Z" fill="black"/>
</svg>
