<svg width="20" height="21" viewBox="0 0 20 21" fill="none" xmlns="http://www.w3.org/2000/svg">
<rect y="0.480957" width="20" height="20" rx="5.5" fill="#6344DF"/>
<path fill-rule="evenodd" clip-rule="evenodd" d="M6.77496 10.4811C6.77496 12.2622 8.21906 13.7061 10.0002 13.7061C10.9902 13.7061 11.8758 13.2599 12.4674 12.5577L14.9091 14.6129C13.732 16.0099 11.9699 16.8978 10.0002 16.8978C6.45622 16.8978 3.5835 14.0249 3.5835 10.4811C3.5835 6.93718 6.45622 4.06445 10.0002 4.06445V7.25591C8.21906 7.25591 6.77496 8.69979 6.77496 10.4811ZM15.5447 13.7123L12.7868 12.1051C12.8809 11.944 12.9615 11.774 13.0269 11.5967L16.0224 12.7007C15.8923 13.0536 15.7319 13.3917 15.5447 13.7123ZM13.2251 10.4811H16.4168C16.4168 10.101 16.3835 9.72869 16.3202 9.36672L13.1766 9.92102C13.2084 10.103 13.2251 10.2901 13.2251 10.4811ZM14.9326 6.37702L12.4792 8.41836C12.3591 8.2741 12.2265 8.14059 12.0833 8.01926L14.1448 5.58302C14.4298 5.82441 14.6935 6.09003 14.9326 6.37702Z" fill="white"/>
</svg>
