<svg width="40" height="41" viewBox="0 0 40 41" fill="none" xmlns="http://www.w3.org/2000/svg">
    <rect y="0.5" width="40" height="40" rx="20" fill="#DE5757"/>
    <path fill-rule="evenodd" clip-rule="evenodd" d="M20 9.5C13.9249 9.5 9 14.4249 9 20.5C9 26.5751 13.9249 31.5 20 31.5C26.0751 31.5 31 26.5751 31 20.5C31 14.4249 26.0751 9.5 20 9.5ZM11 20.5C11 15.5294 15.0294 11.5 20 11.5C22.2526 11.5 24.3119 12.3276 25.8905 13.6953L13.1953 26.3905C11.8276 24.8119 11 22.7526 11 20.5ZM14.6651 27.7491C16.158 28.8496 18.003 29.5 20 29.5C24.9706 29.5 29 25.4706 29 20.5C29 18.503 28.3496 16.658 27.2491 15.1651L14.6651 27.7491Z" fill="white"/>
</svg>
