<svg width="12" height="12" viewBox="0 0 12 12" fill="none" xmlns="http://www.w3.org/2000/svg">
    <path fill-rule="evenodd" clip-rule="evenodd" d="M1.5 2C1.5 1.72386 1.72386 1.5 2 1.5H6.5C6.77614 1.5 7 1.72386 7 2V2.5C7 2.77614 7.22386 3 7.5 3C7.77614 3 8 2.77614 8 2.5V2C8 1.17157 7.32843 0.5 6.5 0.5H2C1.17157 0.5 0.5 1.17157 0.5 2V6.5C0.5 7.32843 1.17157 8 2 8H2.5C2.77614 8 3 7.77614 3 7.5C3 7.22386 2.77614 7 2.5 7H2C1.72386 7 1.5 6.77614 1.5 6.5V2ZM6.00024 4.00006C4.89567 4.00006 4.00024 4.89549 4.00024 6.00006V9.50006C4.00024 10.6046 4.89567 11.5001 6.00024 11.5001H9.50024C10.6048 11.5001 11.5002 10.6046 11.5002 9.50006V6.00006C11.5002 4.89549 10.6048 4.00006 9.50024 4.00006H6.00024ZM5.00024 6.00006C5.00024 5.44778 5.44796 5.00006 6.00024 5.00006H9.50024C10.0525 5.00006 10.5002 5.44778 10.5002 6.00006V9.50006C10.5002 10.0523 10.0525 10.5001 9.50024 10.5001H6.00024C5.44796 10.5001 5.00024 10.0523 5.00024 9.50006V6.00006Z" fill="#0C0C0C"/>
</svg>
