<svg width="16" height="14" viewBox="0 0 16 14" fill="none" xmlns="http://www.w3.org/2000/svg">
<path fill-rule="evenodd" clip-rule="evenodd" d="M6.77249 1.04113L0.692395 11.4558C0.437304 11.909 0.435781 12.4671 0.688394 12.9219C0.941006 13.3766 1.40981 13.6596 1.9199 13.6654H14.0801C14.5902 13.6596 15.059 13.3766 15.3116 12.9219C15.5642 12.4671 15.5627 11.909 15.3076 11.4558L9.22751 1.04113C8.96724 0.600886 8.50183 0.332031 8 0.332031C7.49817 0.332031 7.03276 0.600886 6.77249 1.04113ZM7.16667 4.4987C7.16667 4.03846 7.53976 3.66536 8 3.66536C8.46024 3.66536 8.83333 4.03846 8.83333 4.4987V8.66536C8.83333 9.1256 8.46024 9.4987 8 9.4987C7.53976 9.4987 7.16667 9.1256 7.16667 8.66537V4.4987ZM8 10.332C7.53976 10.332 7.16667 10.7051 7.16667 11.1654C7.16667 11.6256 7.53976 11.9987 8 11.9987C8.46024 11.9987 8.83333 11.6256 8.83333 11.1654C8.83333 10.7051 8.46024 10.332 8 10.332Z" fill="#F03738"/>
</svg>
