<svg width="56" height="56" viewBox="0 0 56 56" fill="none" xmlns="http://www.w3.org/2000/svg">
<rect width="56" height="56" rx="16" fill="#0E3FE5"/>
<path fill-rule="evenodd" clip-rule="evenodd" d="M33.2363 35.9109C33.2363 35.9109 32.5582 35.101 31.9932 34.3853C34.4606 33.6883 35.4024 32.1438 35.4024 32.1438C34.6301 32.6524 33.8955 33.0103 33.2363 33.2551C32.2945 33.6507 31.3904 33.9144 30.5051 34.0651C28.6969 34.4041 27.0394 34.3099 25.6267 34.0462C24.5531 33.839 23.6301 33.5377 22.8579 33.2363C22.4247 33.0668 21.9538 32.8596 21.4829 32.5959C21.4264 32.5582 21.3699 32.5394 21.3134 32.5017C21.2757 32.4829 21.2568 32.464 21.238 32.4452C20.899 32.2568 20.7106 32.125 20.7106 32.125C20.7106 32.125 21.6147 33.6318 24.0068 34.3476C23.4418 35.0633 22.7449 35.9109 22.7449 35.9109C18.5822 35.7791 17 33.0479 17 33.0479C17 26.9829 19.7123 22.0668 19.7123 22.0668C22.4247 20.0325 25.0051 20.089 25.0051 20.089L25.1935 20.3151C21.8031 21.2945 20.2397 22.7825 20.2397 22.7825C20.2397 22.7825 20.6541 22.5565 21.351 22.2363C23.3664 21.351 24.9675 21.1061 25.6267 21.0496C25.7397 21.0308 25.8339 21.012 25.9469 21.012C27.0959 20.8613 28.3955 20.8236 29.7517 20.9743C31.5411 21.1815 33.4623 21.7089 35.4212 22.7825C35.4212 22.7825 33.9332 21.3698 30.7312 20.3904L30.9949 20.089C30.9949 20.089 33.5753 20.0325 36.2877 22.0668C36.2877 22.0668 39 26.9829 39 33.0479C39 33.0479 37.399 35.7791 33.2363 35.9109ZM31.3527 27.1147C30.2791 27.1147 29.4315 28.0565 29.4315 29.2055C29.4315 30.3544 30.2979 31.2962 31.3527 31.2962C32.4264 31.2962 33.274 30.3544 33.274 29.2055C33.274 28.0565 32.4264 27.1147 31.3527 27.1147ZM24.4777 27.1147C23.4041 27.1147 22.5565 28.0565 22.5565 29.2055C22.5565 30.3544 23.4229 31.2962 24.4777 31.2962C25.5514 31.2962 26.399 30.3544 26.399 29.2055C26.4178 28.0565 25.5514 27.1147 24.4777 27.1147Z" fill="white"/>
</svg>
