<svg width="24" height="24" viewBox="0 0 24 24" fill="none" xmlns="http://www.w3.org/2000/svg">
    <path fill-rule="evenodd" clip-rule="evenodd" d="M17.2363 19.9109C17.2363 19.9109 16.5582 19.101 15.9932 18.3853C18.4606 17.6883 19.4024 16.1438 19.4024 16.1438C18.6301 16.6524 17.8955 17.0103 17.2363 17.2551C16.2945 17.6507 15.3904 17.9144 14.5051 18.0651C12.6969 18.4041 11.0394 18.3099 9.62671 18.0462C8.55308 17.839 7.63014 17.5377 6.85788 17.2363C6.42466 17.0668 5.95377 16.8596 5.48288 16.5959C5.42637 16.5582 5.36986 16.5394 5.31336 16.5017C5.27569 16.4829 5.25685 16.464 5.23801 16.4452C4.89897 16.2568 4.71062 16.125 4.71062 16.125C4.71062 16.125 5.61473 17.6318 8.00685 18.3476C7.44178 19.0633 6.74486 19.9109 6.74486 19.9109C2.58219 19.7791 1 17.0479 1 17.0479C1 10.9829 3.71233 6.06676 3.71233 6.06676C6.42466 4.03252 9.00514 4.08902 9.00514 4.08902L9.19349 4.31505C5.80308 5.2945 4.23973 6.78252 4.23973 6.78252C4.23973 6.78252 4.65411 6.55649 5.35103 6.23628C7.36644 5.35101 8.96747 5.10615 9.62671 5.04964C9.73973 5.0308 9.8339 5.01197 9.94692 5.01197C11.0959 4.86128 12.3955 4.82361 13.7517 4.9743C15.5411 5.18149 17.4623 5.70889 19.4212 6.78252C19.4212 6.78252 17.9332 5.36985 14.7312 4.39039L14.9949 4.08902C14.9949 4.08902 17.5753 4.03252 20.2877 6.06676C20.2877 6.06676 23 10.9829 23 17.0479C23 17.0479 21.399 19.7791 17.2363 19.9109ZM15.3527 11.1147C14.2791 11.1147 13.4315 12.0565 13.4315 13.2055C13.4315 14.3544 14.2979 15.2962 15.3527 15.2962C16.4264 15.2962 17.274 14.3544 17.274 13.2055C17.274 12.0565 16.4264 11.1147 15.3527 11.1147ZM8.47774 11.1147C7.40411 11.1147 6.55651 12.0565 6.55651 13.2055C6.55651 14.3544 7.42295 15.2962 8.47774 15.2962C9.55137 15.2962 10.399 14.3544 10.399 13.2055C10.4178 12.0565 9.55137 11.1147 8.47774 11.1147Z" fill="white"/>
</svg>
