<svg width="56" height="56" viewBox="0 0 56 56" fill="none" xmlns="http://www.w3.org/2000/svg">
<rect width="56" height="56" rx="16" fill="#0E3FE5"/>
<path fill-rule="evenodd" clip-rule="evenodd" d="M22.4711 28C22.4711 31.0533 24.9467 33.5285 28 33.5285C29.6971 33.5285 31.2154 32.7635 32.2295 31.5599L36.4153 35.083C34.3975 37.4779 31.3767 39 28 39C21.9247 39 17 34.075 17 28C17 21.9247 21.9247 17 28 17V22.4711C24.9467 22.4711 22.4711 24.9463 22.4711 28ZM37.5048 33.5391L32.7771 30.7839C32.9384 30.5077 33.0766 30.2164 33.1887 29.9124L38.3238 31.805C38.1008 32.4099 37.8258 32.9895 37.5048 33.5391ZM33.5285 28H39C39 27.3484 38.9429 26.7101 38.8343 26.0896L33.4453 27.0398C33.4999 27.3517 33.5285 27.6725 33.5285 28ZM36.4556 20.9644L32.2498 24.4638C32.0439 24.2165 31.8167 23.9877 31.5712 23.7797L35.1051 19.6033C35.5937 20.0171 36.0457 20.4724 36.4556 20.9644Z" fill="white"/>
</svg>
