<svg width="24" height="24" viewBox="0 0 24 24" fill="none" xmlns="http://www.w3.org/2000/svg">
    <path fill-rule="evenodd" clip-rule="evenodd" d="M6.47107 12C6.47107 15.0533 8.94669 17.5285 12 17.5285C13.6971 17.5285 15.2154 16.7635 16.2295 15.5599L20.4153 19.083C18.3975 21.4779 15.3767 23 12 23C5.92467 23 1 18.075 1 12C1 5.92467 5.92467 1 12 1V6.47107C8.94669 6.47107 6.47107 8.94629 6.47107 12ZM21.5048 17.5391L16.7771 14.7839C16.9384 14.5077 17.0766 14.2164 17.1887 13.9124L22.3238 15.805C22.1008 16.4099 21.8258 16.9895 21.5048 17.5391ZM17.5285 12H23C23 11.3484 22.9429 10.7101 22.8343 10.0896L17.4453 11.0398C17.4999 11.3517 17.5285 11.6725 17.5285 12ZM20.4556 4.96441L16.2498 8.46383C16.0439 8.21654 15.8167 7.98767 15.5712 7.77966L19.1051 3.60325C19.5937 4.01707 20.0457 4.47242 20.4556 4.96441Z" fill="white"/>
</svg>
